<?xml version="1.0" encoding="UTF-8"?>
<!-- Generator: visioncortex VTracer 0.6.12 -->
<svg version="1.1" xmlns="http://www.w3.org/2000/svg" width="260" height="280">
<path d="M0 0 C0.99 0 1.98 0 3 0 C4.52 6.192 5.496 12.278 6.062 18.625 C6.145 19.511 6.227 20.398 6.312 21.311 C7.24 31.854 7.643 42.425 8 53 C9.65 53.33 11.3 53.66 13 54 C13.041 53.113 13.082 52.226 13.125 51.312 C14.298 46.872 16.275 45.579 20 43 C25.046 40.212 30.147 40.245 35.598 41.688 C39.925 43.217 42.528 44.472 45.625 47.938 C46.984 50.964 47.384 52.737 47 56 C47.99 56.165 47.99 56.165 53 57 C53.115 56.375 53.23 55.749 53.348 55.105 C56.766 36.62 60.761 18.311 65 0 C65.99 0 66.98 0 68 0 C67.441 7.231 66.263 14.178 64.715 21.258 C64.494 22.287 64.274 23.316 64.047 24.376 C63.349 27.627 62.643 30.876 61.938 34.125 C61.46 36.344 60.983 38.562 60.506 40.781 C59.343 46.189 58.174 51.595 57 57 C57.66 57 58.32 57 59 57 C60.164 60.491 59.93 62.844 59.625 66.5 C59.535 67.645 59.445 68.789 59.352 69.969 C59 73 59 73 58 76 C56.35 76 54.7 76 53 76 C51.238 91.64 49.952 105.923 53.316 121.457 C54.995 130.155 54.724 137.343 50 145 C45.507 150.586 39.958 152.868 33 154 C30.839 154.122 28.676 154.2 26.512 154.246 C25.256 154.277 24 154.309 22.706 154.341 C22.378 154.348 22.378 154.348 20.716 154.387 C6.895 154.729 -6.568 155.101 -19.943 158.929 C-34.187 163.005 -47.218 164.318 -61 158 C-63.141 157.154 -65.287 156.321 -67.438 155.5 C-68.519 155.077 -69.601 154.654 -70.715 154.219 C-73.948 153.019 -77.202 152.004 -80.5 151 C-85.1 149.461 -88.339 148.276 -91 144 C-91.679 140.842 -91.721 138.153 -91 135 C-88.424 131.636 -85.888 129.604 -82 128 C-79.501 127.729 -79.501 127.729 -76.711 127.691 C-75.686 127.666 -74.661 127.641 -73.605 127.615 C-71.475 127.58 -69.345 127.549 -67.215 127.521 C-45.928 126.977 -22.684 112.477 -7.617 97.863 C-1.133 90.392 0.784 81.396 3 72 C2.34 71.835 2.34 71.835 -1 71 C-0.67 65.39 -0.34 59.78 0 54 C1.32 53.67 2.64 53.34 4 53 C3.591 47.541 3.182 42.083 2.773 36.624 C2.634 34.773 2.496 32.922 2.357 31.071 C1.582 20.713 0.803 10.356 0 0 Z M17 50 C15.154 55.337 15.345 61.354 14.96 66.954 C14.813 69.06 14.65 71.163 14.486 73.268 C14.392 74.607 14.299 75.946 14.207 77.285 C14.119 78.501 14.031 79.716 13.941 80.969 C14 84 14 84 16 87 C18.598 87.583 20.993 87.973 23.625 88.25 C23.969 88.295 23.969 88.295 25.707 88.523 C30.665 89.1 35.085 88.917 40 88 C42.694 85.306 42.387 83.661 42.633 79.891 C42.717 78.661 42.8 77.431 42.887 76.164 C42.926 75.518 42.926 75.518 43.125 72.25 C43.211 70.974 43.298 69.698 43.387 68.383 C44.419 52.683 44.419 52.683 42.312 49.25 C38.481 45.522 34.757 44.71 29.5 44.688 C23.894 44.786 20.965 46.035 17 50 Z M3 58 C2.928 59.853 2.916 61.708 2.938 63.562 C2.947 64.574 2.956 65.586 2.965 66.629 C2.976 67.411 2.988 68.194 3 69 C5.97 69.33 8.94 69.66 12 70 C12.33 65.71 12.66 61.42 13 57 C4.125 56.875 4.125 56.875 3 58 Z M47 60 C46.218 63.129 45.886 65.14 45.938 68.25 C45.958 69.487 45.979 70.725 46 72 C48.97 72.33 51.94 72.66 55 73 C56.102 68.591 56.077 64.516 56 60 C53.03 60 50.06 60 47 60 Z M6 73 C5.781 74.039 5.562 75.078 5.336 76.148 C1.527 93.288 -5.947 102.754 -20.803 112.277 C-21.714 112.845 -22.624 113.414 -23.562 114 C-24.517 114.602 -25.471 115.203 -26.455 115.823 C-49.265 130.009 -49.265 130.009 -60.648 130.211 C-61.736 130.239 -62.824 130.268 -63.945 130.297 C-66.224 130.349 -68.502 130.393 -70.781 130.43 C-81.366 130.73 -81.366 130.73 -86 134 C-88.335 137.502 -88.673 138.88 -88 143 C-83.123 147.031 -77.665 148.647 -71.688 150.5 C-65.608 152.409 -59.748 154.419 -53.984 157.15 C-41.021 162.702 -26.433 157.186 -13.678 153.664 C-8.216 152.309 -2.94 151.84 2.672 151.754 C4.156 151.721 5.641 151.688 7.125 151.654 C9.433 151.607 11.741 151.563 14.049 151.523 C38.819 151.08 38.819 151.08 47 144 C50.206 139.449 51.163 134.509 51 129 C50.562 126.575 50.078 124.159 49.562 121.75 C46.36 106.653 47.602 91.134 50 76 C49.34 75.835 49.34 75.835 46 75 C45.951 75.452 45.951 75.452 45.703 77.738 C45.554 78.918 45.404 80.097 45.25 81.312 C45.111 82.484 44.972 83.656 44.828 84.863 C44 88 44 88 42.367 89.898 C35.223 93.223 24.449 91.222 16.953 89.73 C14.514 88.818 13.469 88.173 12 86 C11.707 82.863 11.707 82.863 11.812 79.312 C11.826 78.723 11.826 78.723 11.895 75.738 C11.929 74.835 11.964 73.931 12 73 C10.02 73 8.04 73 6 73 Z " fill="#000000" transform="translate(125,49)"/>
<path d="M0 0 C0.99 0.33 1.98 0.66 3 1 C1.853 4.441 1.231 4.724 -1.688 6.625 C-10.097 12.744 -13.738 21.365 -15.398 31.41 C-15.641 33.268 -15.827 35.134 -16 37 C-16.99 37 -17.98 37 -19 37 C-19.788 25.677 -17.271 16.791 -9.938 8.02 C-6.984 4.941 -3.843 1.921 0 0 Z " fill="#000000" transform="translate(109,66)"/>
<path d="M0 0 C0 0.99 0 1.98 0 3 C-1.052 3.701 -2.104 4.403 -3.188 5.125 C-8.602 8.807 -11.192 13.738 -12.75 20.027 C-13.242 22.681 -13.665 25.322 -14 28 C-15.32 28 -16.64 28 -18 28 C-17.738 16.814 -13.809 9.258 -5.965 1.398 C-4 0 -4 0 0 0 Z " fill="#000000" transform="translate(116,74)"/>
<path d="M0 0 C10.121 5.852 16.897 13.573 20 25 C21.612 34.775 21.612 34.775 20 38 C19.505 37.835 19.505 37.835 17 37 C16.925 36.201 16.85 35.402 16.773 34.578 C15.391 23.032 12.022 13.605 2.734 6.207 C1 5 1 5 -1 4 C-0.67 2.68 -0.34 1.36 0 0 Z " fill="#000000" transform="translate(206,74)"/>
<path d="M0 0 C0 1.32 0 2.64 0 4 C-1.493 5.265 -2.99 6.527 -4.539 7.723 C-6.646 9.565 -7.238 11.332 -8 14 C-8.371 15.258 -8.743 16.516 -9.125 17.812 C-9.414 18.864 -9.703 19.916 -10 21 C-10.99 21 -11.98 21 -13 21 C-12.826 14.148 -11.342 9.358 -7 4 C-2.7 0 -2.7 0 0 0 Z " fill="#000000" transform="translate(120,81)"/>
<path d="M0 0 C7.463 2.345 11.512 8.342 15 15 C16.774 19.816 17.209 23.882 17 29 C15.68 28.67 14.36 28.34 13 28 C12.925 27.238 12.85 26.476 12.773 25.691 C11.74 17.576 9.741 10.958 3.273 5.559 C1.625 4.438 1.625 4.438 -1 3 C-0.67 2.01 -0.34 1.02 0 0 Z " fill="#000000" transform="translate(201,82)"/>
<path d="M0 0 C2.787 0.082 4.518 0.562 6.598 2.449 C11.639 8.16 13.304 12.261 13 20 C12.01 20 11.02 20 10 20 C9.841 19.348 9.683 18.695 9.52 18.023 C7.95 12.142 6.319 8.319 2 4 C1.34 3.67 0.68 3.34 0 3 C0 2.01 0 1.02 0 0 Z " fill="#000000" transform="translate(196,90)"/>
<path d="M0 0 C2.812 1.562 2.812 1.562 4.375 4.375 C4.812 7.562 4.812 7.562 3.812 10.375 C1.812 12.562 1.812 12.562 -1.062 13.688 C-4.188 13.562 -4.188 13.562 -7.125 11.5 C-9.188 8.562 -9.188 8.562 -9.312 5.438 C-8.188 2.562 -8.188 2.562 -6 0.562 C-3.188 -0.438 -3.188 -0.438 0 0 Z M-4.188 3.562 C-4.518 5.213 -4.847 6.862 -5.188 8.562 C-4.363 8.727 -4.363 8.727 -0.188 9.562 C0.143 7.912 0.472 6.263 0.812 4.562 C-0.838 4.233 -2.488 3.903 -4.188 3.562 Z " fill="#000000" transform="translate(157.1875,102.4375)"/>
<path d="M0 0 C0.33 0.99 0.66 1.98 1 3 C1.99 3 2.98 3 4 3 C4 4.98 4 6.96 4 9 C3.67 9 3.34 9 3 9 C3 7.35 3 5.7 3 4 C2.34 4 1.68 4 1 4 C1 5.65 1 7.3 1 9 C0.67 9 0.34 9 0 9 C0 6.03 0 3.06 0 0 Z " fill="#000000" transform="translate(60,266)"/>
<path d="M0 0 C0.33 0.66 0.66 1.32 1 2 C1.99 2 2.98 2 4 2 C4.33 1.34 4.66 0.68 5 0 C5 0.66 5 1.32 5 2 C5.66 2.33 6.32 2.66 7 3 C6.34 3 5.68 3 5 3 C4.67 4.32 4.34 5.64 4 7 C4 5.68 4 4.36 4 3 C3.01 3 2.02 3 1 3 C0.67 4.32 0.34 5.64 0 7 C-1.125 2.25 -1.125 2.25 0 0 Z " fill="#000000" transform="translate(72,267)"/>
</svg>
