<?xml version="1.0" encoding="UTF-8"?>
<!-- Generator: visioncortex VTracer 0.6.12 -->
<svg version="1.1" xmlns="http://www.w3.org/2000/svg" width="1024" height="1024">
<path d="M0 0 C5.502 -0.092 10.995 -0.058 16.496 0.046 C17.332 0.058 18.168 0.071 19.029 0.084 C116.022 1.843 213.181 34.738 300.868 99.769 C302.567 101.101 304.278 102.416 305.992 103.729 C312.897 109.045 319.453 114.593 325.816 120.546 C328.094 122.671 330.398 124.749 332.746 126.796 C333.36 127.331 333.973 127.866 334.605 128.417 C335.984 129.605 337.371 130.783 338.762 131.956 C339.499 132.584 340.236 133.212 340.996 133.858 C341.666 134.422 342.337 134.985 343.027 135.565 C344.496 137.046 344.496 137.046 344.496 139.046 C345.486 139.376 346.476 139.706 347.496 140.046 C347.496 140.706 347.496 141.366 347.496 142.046 C348.156 142.046 348.816 142.046 349.496 142.046 C349.496 142.706 349.496 143.366 349.496 144.046 C350.486 144.376 351.476 144.706 352.496 145.046 C353.828 146.366 353.828 146.366 355.309 148.171 C358.283 151.688 361.369 155.065 364.532 158.412 C370.823 165.071 376.835 171.836 382.496 179.046 C383.011 179.694 383.527 180.342 384.058 181.01 C392.321 191.404 400.156 201.981 407.496 213.046 C407.718 213.377 407.718 213.377 408.842 215.055 C451.264 278.505 478.125 351.582 486.809 427.358 C486.89 428.06 486.971 428.761 487.055 429.484 C489.045 446.924 489.707 464.375 489.684 481.921 C489.683 482.34 489.683 482.34 489.682 484.464 C489.596 528.847 486.301 579.71 468.496 621.046 C467.81 623.242 467.164 625.451 466.559 627.671 C459.565 652.762 459.565 652.762 456.086 658.284 C454.161 661.628 452.904 665.111 451.621 668.733 C449.633 674.212 447.496 679.428 444.672 684.542 C443.659 686.698 442.996 688.662 442.316 690.933 C440.077 697.815 436.487 704.077 433.059 710.421 C432.704 711.082 432.349 711.743 431.984 712.424 C425.97 723.624 419.528 734.453 412.496 745.046 C411.817 746.096 411.137 747.147 410.438 748.229 C400.683 763.176 389.951 777.37 378.496 791.046 C378.003 791.638 377.51 792.231 377.001 792.841 C366.297 805.665 354.838 817.771 343.059 829.608 C342.421 830.251 341.783 830.893 341.126 831.555 C337.311 835.357 333.374 838.965 329.298 842.485 C327.113 844.377 324.994 846.335 322.871 848.296 C316.667 853.88 310.117 858.973 303.496 864.046 C302.75 864.621 302.005 865.197 301.236 865.79 C284.423 878.742 266.878 890.438 248.496 901.046 C247.835 901.428 247.174 901.81 246.494 902.203 C185.876 937.017 119.932 957.03 50.496 964.046 C49.469 964.152 48.441 964.258 47.383 964.367 C34.483 965.492 21.496 965.29 8.559 965.296 C7.909 965.296 7.909 965.296 4.622 965.298 C-14.622 965.282 -33.434 964.796 -52.504 962.046 C-53.792 961.869 -55.08 961.692 -56.407 961.51 C-105.01 954.799 -151.224 941.722 -195.83 921.27 C-198.221 920.175 -200.62 919.101 -203.023 918.034 C-219.82 910.478 -235.633 900.945 -251.254 891.233 C-252.217 890.636 -253.18 890.038 -254.172 889.423 C-260.828 885.236 -267.197 880.739 -273.504 876.046 C-273.867 875.777 -273.867 875.777 -275.707 874.418 C-286.74 866.242 -297.502 857.813 -307.952 848.901 C-310.393 846.82 -312.84 844.789 -315.391 842.843 C-316.088 842.25 -316.785 841.657 -317.504 841.046 C-317.504 840.386 -317.504 839.726 -317.504 839.046 C-318.052 838.825 -318.6 838.605 -319.164 838.378 C-322.239 836.627 -324.505 834.256 -326.941 831.733 C-327.174 831.497 -327.174 831.497 -328.35 830.298 C-329.737 828.883 -331.121 827.465 -332.504 826.046 C-335.189 823.344 -337.892 820.664 -340.617 818.003 C-341.684 816.955 -342.75 815.907 -343.816 814.858 C-344.366 814.325 -344.916 813.792 -345.482 813.243 C-346.861 811.882 -348.187 810.467 -349.504 809.046 C-349.504 808.386 -349.504 807.726 -349.504 807.046 C-350.164 807.046 -350.824 807.046 -351.504 807.046 C-352.914 805.683 -352.914 805.683 -354.566 803.733 C-355.192 802.997 -355.817 802.261 -356.461 801.503 C-356.798 801.098 -356.798 801.098 -358.504 799.046 C-359.188 798.225 -359.873 797.404 -360.578 796.558 C-362.907 793.736 -365.21 790.895 -367.504 788.046 C-367.713 787.787 -367.713 787.787 -368.77 786.476 C-392.758 756.626 -413.417 724.31 -429.383 689.472 C-430.346 687.389 -431.334 685.323 -432.348 683.265 C-462.123 622.029 -475.779 552.179 -475.691 484.358 C-475.69 483.415 -475.69 482.472 -475.689 481.501 C-475.581 431.455 -468.211 381.646 -452.504 334.046 C-452.103 332.828 -451.703 331.61 -451.29 330.354 C-444.881 311.022 -437.237 292.443 -428.504 274.046 C-428.051 273.091 -427.599 272.136 -427.132 271.152 C-403.04 220.749 -368.914 176.451 -329.629 137.046 C-329.137 136.551 -328.645 136.056 -328.138 135.546 C-322.441 129.826 -316.665 124.268 -310.504 119.046 C-309.494 118.169 -308.485 117.291 -307.477 116.413 C-298.748 108.938 -289.696 101.941 -280.504 95.046 C-279.584 94.35 -278.663 93.654 -277.715 92.937 C-237.074 62.746 -191.571 39.72 -143.504 24.046 C-142.199 23.609 -140.894 23.171 -139.59 22.733 C-135.582 21.429 -131.553 20.216 -127.504 19.046 C-127 18.899 -127 18.899 -124.451 18.156 C-83.923 6.476 -42.147 0.773 0 0 Z M-63.746 97.513 C-66.516 98.048 -69.291 98.539 -72.07 99.026 C-121.308 108.062 -169.066 129.319 -210.504 157.046 C-211.177 157.49 -211.849 157.935 -212.542 158.393 C-223.052 165.346 -232.84 172.968 -242.504 181.046 C-243.728 182.062 -244.951 183.078 -246.176 184.093 C-248.958 186.403 -251.733 188.721 -254.504 191.046 C-253.062 194.515 -251.351 196.221 -248.379 198.483 C-247.488 199.174 -246.597 199.865 -245.68 200.577 C-245.179 200.964 -244.678 201.351 -244.163 201.749 C-240.926 204.28 -237.751 206.888 -234.566 209.483 C-234.219 209.766 -234.219 209.766 -232.46 211.196 C-227.766 215.014 -223.081 218.843 -218.402 222.679 C-216.183 224.492 -213.959 226.298 -211.73 228.101 C-205.393 233.23 -199.077 238.374 -192.879 243.671 C-187.935 247.895 -182.868 251.932 -177.734 255.921 C-173.185 259.472 -168.781 263.168 -164.398 266.921 C-160.511 270.234 -156.537 273.412 -152.504 276.546 C-147.354 280.547 -142.349 284.681 -137.396 288.923 C-133.532 292.217 -129.578 295.372 -125.566 298.483 C-120.058 302.759 -114.741 307.216 -109.469 311.778 C-105.467 315.236 -101.397 318.584 -97.25 321.866 C-88.578 328.749 -79.992 335.739 -71.566 342.921 C-67.496 346.391 -63.363 349.743 -59.117 352.995 C-54.752 356.421 -50.493 359.976 -46.216 363.51 C-41.331 367.545 -36.427 371.557 -31.504 375.546 C-24.444 381.269 -17.426 387.041 -10.414 392.823 C-5.456 396.912 -0.481 400.981 4.496 405.046 C9.499 409.132 14.501 413.22 19.477 417.339 C26.153 422.862 32.839 428.357 39.684 433.671 C45.014 437.812 50.148 442.14 55.245 446.564 C59.821 450.517 64.533 454.261 69.31 457.967 C73.91 461.55 78.373 465.273 82.808 469.057 C87.974 473.465 93.229 477.76 98.496 482.046 C100.35 483.566 102.205 485.087 104.059 486.608 C107.395 489.34 110.746 492.05 114.121 494.733 C119.404 498.946 124.61 503.249 129.821 507.549 C134.821 511.673 139.838 515.775 144.871 519.858 C145.54 520.401 146.21 520.944 146.899 521.504 C148.184 522.546 149.469 523.589 150.753 524.631 C158.609 531.009 166.415 537.448 174.225 543.882 C179.971 548.616 185.73 553.335 191.496 558.046 C193.33 559.546 195.163 561.046 196.996 562.546 C197.904 563.288 198.811 564.031 199.746 564.796 C206.163 570.046 212.579 575.296 218.996 580.546 C219.91 581.294 220.824 582.041 221.766 582.812 C223.534 584.259 225.303 585.707 227.07 587.155 C233.312 592.268 239.571 597.361 245.839 602.441 C247.727 603.973 249.612 605.509 251.496 607.046 C252.095 607.53 252.693 608.014 253.31 608.513 C254.724 609.668 256.113 610.854 257.496 612.046 C257.496 612.376 257.496 612.706 257.496 613.046 C255.186 613.376 252.876 613.706 250.496 614.046 C250.496 615.696 250.496 617.346 250.496 619.046 C249.836 619.046 249.176 619.046 248.496 619.046 C248.496 618.386 248.496 617.726 248.496 617.046 C246.846 617.376 245.196 617.706 243.496 618.046 C242.371 622.796 242.371 622.796 243.496 625.046 C242.506 625.046 241.516 625.046 240.496 625.046 C239.05 629.297 237.639 633.532 236.434 637.858 C235.496 641.046 235.496 641.046 234.246 643.233 C233.496 645.046 233.496 645.046 234.371 647.296 C234.742 647.873 235.114 648.451 235.496 649.046 C235.826 648.386 236.156 647.726 236.496 647.046 C236.826 648.036 237.156 649.026 237.496 650.046 C235.846 650.376 234.196 650.706 232.496 651.046 C232.496 653.026 232.496 655.006 232.496 657.046 C233.816 657.046 235.136 657.046 236.496 657.046 C236.496 657.706 236.496 658.366 236.496 659.046 C234.846 659.046 233.196 659.046 231.496 659.046 C231.166 660.366 230.836 661.686 230.496 663.046 C231.486 663.046 232.476 663.046 233.496 663.046 C229.733 663.926 226.286 664.151 222.426 664.108 C221.282 664.101 220.139 664.093 218.961 664.085 C217.776 664.072 216.592 664.059 215.371 664.046 C213.014 664.02 210.658 663.999 208.301 663.983 C207.259 663.972 206.217 663.96 205.144 663.948 C202.496 664.046 202.496 664.046 199.496 665.046 C199.107 666.668 198.735 668.293 198.371 669.921 C198.162 670.826 197.953 671.731 197.738 672.663 C197.658 673.449 197.578 674.236 197.496 675.046 C199.862 677.411 201.239 677.628 204.496 678.046 C204.826 677.716 205.156 677.386 205.496 677.046 C206.775 677.087 208.054 677.128 209.371 677.171 C213.237 677.24 213.237 677.24 215.496 675.546 C215.826 675.051 216.156 674.556 216.496 674.046 C219.496 675.046 219.496 675.046 220.684 677.108 C220.952 677.748 221.22 678.387 221.496 679.046 C223.496 679.046 223.496 679.046 226.684 677.983 C230.797 676.972 233.364 677.37 237.496 678.046 C238.548 677.819 239.6 677.592 240.684 677.358 C241.612 677.255 242.54 677.152 243.496 677.046 C245.871 678.983 245.871 678.983 247.496 681.046 C248.816 680.386 250.136 679.726 251.496 679.046 C251.826 679.706 252.156 680.366 252.496 681.046 C254.422 681.46 254.422 681.46 256.809 681.671 C257.588 681.746 258.368 681.82 259.172 681.897 C261.276 682.032 263.387 682.046 265.496 682.046 C263.186 683.366 260.876 684.686 258.496 686.046 C259.156 686.706 259.816 687.366 260.496 688.046 C261.239 687.716 261.981 687.386 262.746 687.046 C265.496 686.046 265.496 686.046 269.496 686.046 C269.713 685.809 269.713 685.809 270.809 684.608 C273.371 682.236 276.109 682.415 279.496 682.046 C280.156 681.716 280.816 681.386 281.496 681.046 C283.503 680.787 285.51 680.53 287.52 680.3 C289.566 680.037 291.515 679.624 293.496 679.046 C293.826 680.366 294.156 681.686 294.496 683.046 C293.527 683.314 292.557 683.582 291.559 683.858 C290.548 684.25 289.537 684.642 288.496 685.046 C288.166 686.036 287.836 687.026 287.496 688.046 C290.419 688.29 292.125 688.242 294.746 686.858 C296.885 684.643 297.17 683.064 297.496 680.046 C298.486 679.716 299.476 679.386 300.496 679.046 C300.496 678.056 300.496 677.066 300.496 676.046 C300.786 675.967 300.786 675.967 302.254 675.565 C308.713 673.636 312.491 671.162 317.184 666.296 C318.496 665.046 318.496 665.046 321.496 664.046 C321.744 664.644 321.991 665.242 322.246 665.858 C323.677 668.362 325.065 669.527 327.496 671.046 C328.156 671.046 328.816 671.046 329.496 671.046 C329.496 671.706 329.496 672.366 329.496 673.046 C330.486 673.046 331.476 673.046 332.496 673.046 C332.517 673.335 332.517 673.335 332.621 674.796 C333.951 678.215 336.393 679.273 339.496 681.046 C340.156 681.046 340.816 681.046 341.496 681.046 C341.496 681.706 341.496 682.366 341.496 683.046 C345.765 682.572 347.811 680.239 350.496 677.046 C350.564 676.689 350.564 676.689 350.906 674.886 C351.734 670.901 353.479 667.506 355.246 663.858 C355.606 663.104 355.966 662.349 356.336 661.572 C358.298 657.474 360.31 653.407 362.371 649.358 C364.082 645.981 365.343 642.658 366.496 639.046 C367.196 637.521 367.905 636.001 368.621 634.483 C370.123 631.191 370.971 628.727 370.496 625.046 C371.156 625.046 371.816 625.046 372.496 625.046 C372.776 624.074 373.056 623.102 373.344 622.101 C373.748 620.707 374.153 619.314 374.559 617.921 C374.78 617.157 375.002 616.394 375.231 615.607 C376.465 611.404 377.751 607.228 379.141 603.073 C405.614 523.668 405.149 437.298 378.496 358.046 C378.38 357.695 378.38 357.695 377.794 355.921 C373.73 343.66 368.745 331.842 363.496 320.046 C363.174 319.314 362.852 318.582 362.521 317.828 C349.253 287.826 330.718 260.741 310.496 235.046 C310.137 234.58 310.137 234.58 308.32 232.225 C307.605 231.307 306.889 230.39 306.152 229.444 C305.501 228.603 304.849 227.762 304.178 226.895 C303.9 226.59 303.9 226.59 302.496 225.046 C301.836 225.046 301.176 225.046 300.496 225.046 C300.238 224.474 299.98 223.901 299.715 223.312 C298.382 220.835 296.846 218.912 294.996 216.796 C294.388 216.089 293.779 215.383 293.152 214.655 C291.496 213.046 291.496 213.046 289.496 213.046 C289.378 212.765 289.378 212.765 288.777 211.343 C287.207 208.527 285.281 206.566 282.996 204.296 C282.202 203.497 281.408 202.697 280.59 201.874 C278.496 200.046 278.496 200.046 276.496 200.046 C276.496 199.386 276.496 198.726 276.496 198.046 C274.887 196.39 274.887 196.39 272.746 194.546 C272.05 193.937 271.354 193.329 270.637 192.702 C268.651 191.166 266.777 190.074 264.496 189.046 C264.496 188.386 264.496 187.726 264.496 187.046 C261.026 183.819 257.222 180.97 253.496 178.046 C252.997 177.651 252.997 177.651 250.469 175.651 C176.916 118.237 83.146 85.666 -63.746 97.513 Z M-322.504 271.046 C-323.99 273.043 -325.213 274.956 -326.441 277.108 C-326.825 277.766 -327.21 278.424 -327.605 279.101 C-370.641 353.837 -392.93 440.765 -382.504 527.046 C-382.38 528.113 -382.257 529.181 -382.129 530.28 C-377.093 572.675 -364.738 613.509 -346.504 652.046 C-346.309 652.458 -346.309 652.458 -345.325 654.542 C-332.821 680.774 -317.074 705.673 -298.504 728.046 C-298.269 728.329 -298.269 728.329 -297.082 729.759 C-292.181 735.64 -287.206 741.457 -282.133 747.19 C-280.939 748.55 -279.761 749.925 -278.594 751.308 C-277.966 752.046 -277.338 752.785 -276.691 753.546 C-276.128 754.216 -275.565 754.887 -274.984 755.577 C-273.504 757.046 -273.504 757.046 -271.504 757.046 C-271.339 757.541 -271.339 757.541 -270.504 760.046 C-268.973 761.554 -268.973 761.554 -267.004 763.171 C-263.903 765.792 -261.019 768.507 -258.191 771.421 C-253.278 776.384 -247.964 780.702 -242.504 785.046 C-241.369 785.97 -240.235 786.896 -239.102 787.823 C-181.819 834.494 -112.742 863.05 -39.504 872.046 C-39.06 872.103 -39.06 872.103 -36.812 872.389 C59.397 884.453 160.093 857.3 237.496 799.046 C238.156 798.554 238.816 798.062 239.497 797.556 C248.979 790.481 258.146 783.131 267.035 775.324 C268.347 774.177 269.672 773.046 271 771.917 C271.7 771.32 272.4 770.723 273.121 770.108 C273.691 769.625 274.261 769.142 274.848 768.644 C276.95 766.606 278.704 764.358 280.496 762.046 C273.034 755.548 265.507 749.194 257.688 743.129 C253.059 739.525 248.574 735.774 244.114 731.964 C240.123 728.56 236.062 725.262 231.953 722.003 C227.428 718.399 222.968 714.715 218.496 711.046 C216.663 709.546 214.83 708.046 212.996 706.546 C212.096 705.809 211.197 705.071 210.27 704.312 C208.363 702.754 206.451 701.202 204.535 699.655 C203.574 698.877 202.612 698.098 201.621 697.296 C200.757 696.6 199.894 695.904 199.004 695.187 C191.06 688.406 191.06 688.406 190.496 683.046 C190.166 682.056 189.836 681.066 189.496 680.046 C188.506 681.036 187.516 682.026 186.496 683.046 C186.496 681.046 186.496 679.046 186.496 677.046 C187.816 677.376 189.136 677.706 190.496 678.046 C191.156 676.396 191.816 674.746 192.496 673.046 C188.746 671.046 188.746 671.046 186.496 671.046 C187.094 670.798 187.692 670.551 188.309 670.296 C190.783 668.882 191.93 667.395 193.496 665.046 C192.403 664.737 191.31 664.427 190.184 664.108 C187.942 663.463 185.709 662.784 183.496 662.046 C183.496 661.056 183.496 660.066 183.496 659.046 C182.506 659.046 181.516 659.046 180.496 659.046 C180.496 658.386 180.496 657.726 180.496 657.046 C179.506 656.716 178.516 656.386 177.496 656.046 C177.166 655.056 176.836 654.066 176.496 653.046 C177.816 652.716 179.136 652.386 180.496 652.046 C180.496 653.036 180.496 654.026 180.496 655.046 C181.816 655.046 183.136 655.046 184.496 655.046 C184.496 654.056 184.496 653.066 184.496 652.046 C184.847 652.077 184.847 652.077 186.621 652.233 C190.149 652.003 192.436 650.754 195.496 649.046 C195.496 649.706 195.496 650.366 195.496 651.046 C198.434 650.671 198.434 650.671 201.496 650.046 C201.826 649.386 202.156 648.726 202.496 648.046 C203.156 648.706 203.816 649.366 204.496 650.046 C206.66 650.679 206.66 650.679 209.121 651.171 C209.938 651.338 210.756 651.506 211.598 651.679 C212.224 651.8 212.851 651.921 213.496 652.046 C213.496 649.075 213.414 646.87 212.496 644.046 C209.934 642.358 209.934 642.358 207.496 641.046 C207.496 640.386 207.496 639.726 207.496 639.046 C211.963 637.004 211.963 637.004 214.871 637.233 C219.038 636.936 221.717 635.119 224.496 632.046 C227.08 626.765 228.16 621.796 226.496 616.046 C218.947 614.167 212.975 613.484 205.398 615.534 C203.117 616.148 200.818 616.611 198.496 617.046 C198.496 617.706 198.496 618.366 198.496 619.046 C201.466 619.376 204.436 619.706 207.496 620.046 C207.166 620.211 207.166 620.211 205.496 621.046 C205.496 621.706 205.496 622.366 205.496 623.046 C206.816 623.376 208.136 623.706 209.496 624.046 C209.826 626.026 210.156 628.006 210.496 630.046 C207.856 631.036 205.216 632.026 202.496 633.046 C203.177 632.468 203.857 631.891 204.559 631.296 C205.198 630.553 205.837 629.811 206.496 629.046 C206.246 626.796 206.246 626.796 205.496 625.046 C204.754 625.232 204.011 625.417 203.246 625.608 C200.496 626.046 200.496 626.046 196.496 625.046 C195.836 627.686 195.176 630.326 194.496 633.046 C193.176 632.716 191.856 632.386 190.496 632.046 C187.779 631.722 185.205 631.618 182.496 632.046 C179.996 634.046 179.996 634.046 178.496 636.046 C177.836 635.056 177.176 634.066 176.496 633.046 C174.195 631.975 171.862 630.966 169.496 630.046 C170.569 630.376 171.641 630.706 172.746 631.046 C176.496 632.046 176.496 632.046 180.496 632.046 C179.447 629.424 178.847 628.252 176.371 626.796 C176.062 626.672 176.062 626.672 174.496 626.046 C175.032 625.51 175.569 624.973 176.121 624.421 C177.496 622.046 177.496 622.046 176.934 618.921 C175.324 615.703 174.738 615.287 171.496 614.046 C169.396 613.799 169.396 613.799 167.126 613.803 C166.272 613.8 165.418 613.797 164.538 613.794 C163.625 613.801 162.711 613.808 161.77 613.815 C160.826 613.816 159.881 613.816 158.909 613.817 C156.917 613.82 154.925 613.828 152.933 613.84 C149.876 613.858 146.819 613.861 143.762 613.86 C141.827 613.865 139.892 613.871 137.957 613.878 C137.039 613.879 136.122 613.88 135.176 613.881 C134.752 613.884 134.752 613.884 132.607 613.901 C131.86 613.904 131.112 613.908 130.342 613.912 C128.496 614.046 128.496 614.046 126.496 615.046 C126.826 617.686 127.156 620.326 127.496 623.046 C126.671 623.458 125.846 623.871 124.996 624.296 C124.584 624.585 124.584 624.585 122.496 626.046 C122.496 627.366 122.496 628.686 122.496 630.046 C121.125 629.132 119.755 628.217 118.387 627.3 C117.093 626.441 115.79 625.596 114.48 624.761 C108.695 621.025 103.429 616.822 98.145 612.413 C94.928 609.745 91.678 607.117 88.434 604.483 C87.739 603.919 87.044 603.354 86.328 602.772 C82.751 599.867 79.165 596.976 75.559 594.108 C70.375 589.976 65.269 585.75 60.156 581.531 C55.287 577.514 50.4 573.521 45.496 569.546 C34.853 560.913 24.232 552.255 13.809 543.358 C8.974 539.237 4.027 535.286 -0.986 531.385 C-7.966 525.938 -14.769 520.275 -21.588 514.629 C-25.878 511.083 -30.193 507.567 -34.504 504.046 C-41.016 498.727 -47.515 493.393 -54.004 488.046 C-63.841 479.942 -73.707 471.876 -83.602 463.843 C-88.284 460.04 -92.955 456.224 -97.621 452.401 C-100.443 450.095 -103.272 447.798 -106.103 445.502 C-114.65 438.569 -123.151 431.581 -131.643 424.58 C-137.167 420.028 -142.708 415.497 -148.273 410.995 C-154.716 405.78 -161.134 400.548 -167.441 395.171 C-171.532 391.685 -175.681 388.309 -179.945 385.038 C-189.143 377.876 -198.114 370.422 -206.987 362.864 C-210.946 359.498 -214.976 356.232 -219.047 353.003 C-224.512 348.65 -229.892 344.19 -235.293 339.757 C-239.633 336.199 -243.982 332.658 -248.379 329.171 C-252.317 326.033 -256.17 322.809 -260.004 319.546 C-264.515 315.708 -269.074 311.949 -273.715 308.269 C-283.723 300.293 -293.606 292.158 -303.504 284.046 C-305.462 282.441 -307.42 280.837 -309.379 279.233 C-310.243 278.526 -311.106 277.818 -311.996 277.089 C-312.824 276.415 -313.651 275.741 -314.504 275.046 C-315.373 274.3 -316.242 273.553 -317.137 272.784 C-319.504 271.046 -319.504 271.046 -322.504 271.046 Z M393.496 627.046 C393.496 628.366 393.496 629.686 393.496 631.046 C394.486 630.716 395.476 630.386 396.496 630.046 C396.496 629.056 396.496 628.066 396.496 627.046 C395.506 627.046 394.516 627.046 393.496 627.046 Z M211.496 639.046 C211.496 640.036 211.496 641.026 211.496 642.046 C212.156 642.046 212.816 642.046 213.496 642.046 C213.496 641.056 213.496 640.066 213.496 639.046 C212.836 639.046 212.176 639.046 211.496 639.046 Z M214.496 645.046 C214.826 645.706 215.156 646.366 215.496 647.046 C215.826 646.386 216.156 645.726 216.496 645.046 C215.836 645.046 215.176 645.046 214.496 645.046 Z M215.496 647.046 C216.496 649.046 216.496 649.046 216.496 649.046 Z M184.496 655.046 C184.496 655.706 184.496 656.366 184.496 657.046 C185.156 657.046 185.816 657.046 186.496 657.046 C186.496 656.386 186.496 655.726 186.496 655.046 C185.836 655.046 185.176 655.046 184.496 655.046 Z M319.496 668.046 C319.496 668.706 319.496 669.366 319.496 670.046 C320.156 669.716 320.816 669.386 321.496 669.046 C320.836 668.716 320.176 668.386 319.496 668.046 Z M229.496 682.046 C229.826 682.706 230.156 683.366 230.496 684.046 C230.826 683.386 231.156 682.726 231.496 682.046 C230.836 682.046 230.176 682.046 229.496 682.046 Z M279.496 686.046 C277.846 686.376 276.196 686.706 274.496 687.046 C275.156 687.706 275.816 688.366 276.496 689.046 C277.816 689.046 279.136 689.046 280.496 689.046 C280.166 688.056 279.836 687.066 279.496 686.046 Z " fill="#DC0000" transform="translate(503.50390625,30.9541015625)"/>
<path d="M0 0 C6.006 2.936 10.47 6.971 15.332 11.531 C17.556 13.589 19.819 15.492 22.188 17.375 C22.652 17.808 22.652 17.808 25 20 C25 21.32 25 22.64 25 24 C26.32 24 27.64 24 29 24 C29.029 27.437 29.047 30.875 29.062 34.312 C29.071 35.289 29.079 36.265 29.088 37.271 C29.091 38.209 29.094 39.147 29.098 40.113 C29.103 40.977 29.108 41.841 29.114 42.732 C29 45 29 45 28 48 C29.32 48 30.64 48 32 48 C31.691 49.459 31.378 50.917 31.062 52.375 C30.888 53.187 30.714 53.999 30.535 54.836 C30 57 30 57 29 59 C30.32 59 31.64 59 33 59 C32.715 60.418 32.422 61.834 32.125 63.25 C32.044 63.644 32.044 63.644 31.633 65.641 C31.008 67.968 30.152 69.89 29 72 C30.65 72 32.3 72 34 72 C33.52 77.569 32.701 82.671 31 88 C32.65 88 34.3 88 36 88 C34.68 91.3 33.36 94.6 32 98 C32.66 98.33 33.32 98.66 34 99 C33 104 32 109 31 114 C31.99 114 32.98 114 34 114 C33.399 119.65 31.925 124.662 30 130 C31.32 130 32.64 130 34 130 C32.235 136.107 30.304 142.074 28 148 C29.65 148 31.3 148 33 148 C32.698 148.815 32.396 149.629 32.085 150.468 C14 199.347 14 199.347 14 212 C18.518 210.143 19.753 207.72 21.773 203.406 C26.016 191.623 27.333 178.623 29.049 166.272 C29.902 160.197 29.902 160.197 31 158 C31.99 158 32.98 158 34 158 C33.977 157.325 33.954 156.649 33.93 155.953 C33.912 155.061 33.894 154.169 33.875 153.25 C33.852 152.368 33.829 151.487 33.805 150.578 C34.009 147.886 34.634 146.301 36 144 C37.32 144 38.64 144 40 144 C40.024 143.704 40.024 143.704 40.148 142.207 C40.96 133.626 40.96 133.626 43 130 C43.99 129.67 44.98 129.34 46 129 C46.73 126.934 46.73 126.934 47.188 124.438 C47.346 123.611 47.505 122.785 47.668 121.934 C47.778 121.296 47.887 120.657 48 120 C49.65 120.33 51.3 120.66 53 121 C53.024 120.687 53.024 120.687 53.148 119.102 C53.223 118.284 53.298 117.467 53.375 116.625 C53.445 115.813 53.514 115.001 53.586 114.164 C54 112 54 112 56 110 C56.99 110.66 57.98 111.32 59 112 C60.32 107.71 61.64 103.42 63 99 C64.65 99.99 66.3 100.98 68 102 C68.082 100.989 68.165 99.979 68.25 98.938 C68.84 94.622 70.689 91.653 73 88 C74.65 88.66 76.3 89.32 78 90 C78.99 86.7 79.98 83.4 81 80 C83.333 80 85.667 80 88 80 C90.188 78 90.188 78 92 76 C96.546 77.279 99.329 79.884 102.73 82.992 C106.038 85.919 109.567 88.547 113.094 91.203 C113.723 91.796 114.352 92.389 115 93 C115 93.99 115 94.98 115 96 C114.34 96.66 113.68 97.32 113 98 C113.052 98.777 113.103 99.555 113.156 100.355 C113 103 113 103 111.031 105.238 C110.196 105.923 109.361 106.607 108.5 107.312 C108.082 107.661 108.082 107.661 105.969 109.426 C105.319 109.945 104.669 110.465 104 111 C104.66 112.98 105.32 114.96 106 117 C105.434 117.338 104.868 117.675 104.285 118.023 C103.552 118.469 102.818 118.915 102.062 119.375 C101.332 119.816 100.601 120.257 99.848 120.711 C98 122 98 122 97 124 C97.99 124.33 98.98 124.66 100 125 C100 125.66 100 126.32 100 127 C98.539 128.289 98.539 128.289 96.625 129.625 C95.999 130.071 95.372 130.517 94.727 130.977 C93 132 93 132 91 132 C91 132.66 91 133.32 91 134 C91.99 134.33 92.98 134.66 94 135 C91.51 137.561 89.048 139.962 86.25 142.188 C84 144 84 144 83 146 C83.99 146.33 84.98 146.66 86 147 C83.495 149.576 81.09 151.934 78.188 154.062 C77.466 154.702 76.744 155.341 76 156 C76 157.32 76 158.64 76 160 C74.285 161.598 74.285 161.598 72.062 163.062 C68.101 165.696 68.101 165.696 67 169 C67.66 169 68.32 169 69 169 C67.699 172.904 65.883 173.817 62.562 176.188 C61.574 176.903 60.585 177.618 59.566 178.355 C57 180 57 180 55 180 C55.66 181.32 56.32 182.64 57 184 C56.169 184.58 55.337 185.16 54.48 185.758 C53.382 186.546 52.285 187.335 51.188 188.125 C50.64 188.504 50.093 188.883 49.529 189.273 C45.64 192.102 44.049 194.734 42 199 C39.949 200.652 39.949 200.652 37.688 201.938 C30.723 206.279 26.801 211.837 23 219 C35.982 214.992 46.442 205.894 56.294 196.848 C59.518 193.958 61.727 192.592 66 192 C67.688 190.355 69.354 188.687 71 187 C71.413 186.856 71.413 186.856 73.5 186.125 C77.24 184.442 78.864 181.4 81 178 C81.928 178.186 82.856 178.371 83.812 178.562 C87 179 87 179 90 178 C91.187 175.938 91.187 175.938 92 174 C92.66 174 93.32 174 94 174 C94.33 174.99 94.66 175.98 95 177 C98 176 98 176 99.688 172.938 C100.121 171.968 100.554 170.999 101 170 C101.66 170 102.32 170 103 170 C103.66 171.65 104.32 173.3 105 175 C105.543 174.495 106.085 173.989 106.645 173.469 C107.36 172.819 108.075 172.169 108.812 171.5 C109.52 170.85 110.228 170.201 110.957 169.531 C113 168 113 168 116 168 C116 169.32 116 170.64 116 172 C116.771 171.567 117.542 171.134 118.336 170.688 C119.339 170.131 120.342 169.574 121.375 169 C122.373 168.443 123.37 167.886 124.398 167.312 C127 166 127 166 129 166 C129.33 167.32 129.66 168.64 130 170 C133.995 168.63 136.8 166.743 140 164 C140 165.65 140 167.3 140 169 C141.98 168.34 143.96 167.68 146 167 C146 166.34 146 165.68 146 165 C147.32 164.34 148.64 163.68 150 163 C150 163.99 150 164.98 150 166 C155.35 165.43 160.678 164.793 166 164 C166 164.99 166 165.98 166 167 C173.716 167.157 181.315 166.675 189 166 C188.248 166.598 187.497 167.196 186.723 167.812 C181.967 171.634 177.369 175.547 173.133 179.945 C167.543 185.745 162.527 190.731 155 194 C155.33 194.99 155.66 195.98 156 197 C154.185 197.33 154.185 197.33 145 199 C144.67 200.65 144.34 202.3 144 204 C140.7 203.67 137.4 203.34 134 203 C134.66 204.65 135.32 206.3 136 208 C132.04 208.33 128.08 208.66 124 209 C124.33 209.99 124.66 210.98 125 212 C120.38 212.33 115.76 212.66 111 213 C111.33 214.65 111.66 216.3 112 218 C110.229 217.859 108.458 217.712 106.688 217.562 C106.194 217.522 106.194 217.522 103.699 217.316 C101 217 101 217 98 216 C98.33 217.65 98.66 219.3 99 221 C93.72 220.67 88.44 220.34 83 220 C83.66 221.65 84.32 223.3 85 225 C80.05 224.67 75.1 224.34 70 224 C70.66 225.32 71.32 226.64 72 228 C71.17 227.928 70.34 227.856 69.484 227.781 C55.666 226.741 41.85 226.905 28 227 C29.57 228.853 30.513 229.889 32.917 230.437 C33.639 230.466 34.361 230.494 35.104 230.524 C35.925 230.564 36.745 230.604 37.591 230.645 C38.472 230.673 39.354 230.701 40.262 230.73 C41.168 230.771 42.073 230.811 43.007 230.852 C45.9 230.977 48.793 231.083 51.688 231.188 C53.649 231.269 55.611 231.352 57.572 231.436 C62.381 231.639 67.19 231.824 72 232 C72 233.32 72 234.64 72 236 C78.93 237.32 85.86 238.64 93 240 C93 240.99 93 241.98 93 243 C94.288 243.254 95.576 243.508 96.902 243.77 C98.581 244.116 100.259 244.464 101.938 244.812 C102.363 244.895 102.363 244.895 104.514 245.314 C105.323 245.485 106.131 245.656 106.965 245.832 C107.714 245.984 108.463 246.136 109.234 246.292 C109.817 246.526 110.4 246.759 111 247 C111.33 247.99 111.66 248.98 112 250 C114.647 251.126 117.216 252.097 119.938 253 C127.734 255.601 127.734 255.601 130 259 C129.34 259.33 128.68 259.66 128 260 C128.537 260.242 128.537 260.242 131.254 261.469 C146.742 268.686 146.742 268.686 151 276 C151 276.66 151 277.32 151 278 C150.091 277.834 149.182 277.667 148.246 277.496 C141.847 276.581 135.337 276.996 128.893 277.127 C122.831 277.192 117.829 276.607 112 275 C110.886 275.227 109.772 275.454 108.625 275.688 C103.237 276.152 99.57 273.657 95 271 C94.34 272.32 93.68 273.64 93 275 C91.02 273.35 89.04 271.7 87 270 C86.67 270.99 86.34 271.98 86 273 C82.005 271.63 79.2 269.743 76 267 C76 267.66 76 268.32 76 269 C73.058 268.58 72.088 268.093 70 265.875 C69.34 265.256 68.68 264.638 68 264 C67.34 264.165 66.68 264.33 66 264.5 C65.34 264.665 64.68 264.83 64 265 C62.623 263.712 61.294 262.372 60 261 C59.635 260.87 59.635 260.87 57.789 260.215 C54.013 258.57 51.364 256.101 48.312 253.375 C47.074 252.29 45.834 251.207 44.594 250.125 C43.987 249.594 43.379 249.063 42.754 248.516 C29.488 237.052 29.488 237.052 23 236 C23.75 238.875 23.75 238.875 25 242 C26.805 243.012 26.805 243.012 29 244 C30.471 244.96 31.929 245.94 33.375 246.938 C36.077 248.779 38.517 250.24 41.5 251.625 C42.325 252.079 43.15 252.533 44 253 C44.072 253.32 44.072 253.32 44.438 254.938 C45 257 45 257 46.531 258.109 C48.978 259.493 51.487 260.743 54 262 C54.248 262.846 54.495 263.691 54.75 264.562 C56.162 268.445 58.127 270.936 60.758 274.07 C62 276 62 276 62 280 C63.75 282.578 63.75 282.578 66 285.25 C66.743 286.142 67.485 287.034 68.25 287.953 C68.827 288.629 69.405 289.304 70 290 C69.67 290.66 69.34 291.32 69 292 C68.691 291.752 68.691 291.752 67.129 290.496 C61.458 285.947 55.752 281.446 50 277 C49.34 277.99 48.68 278.98 48 280 C47.457 279.518 46.915 279.036 46.355 278.539 C45.64 277.907 44.925 277.276 44.188 276.625 C43.48 275.999 42.772 275.372 42.043 274.727 C40 273 40 273 37 271 C37 270.34 37 269.68 37 269 C35.02 269 33.04 269 31 269 C30.613 267.929 30.227 266.858 29.828 265.754 C29.303 264.356 28.777 262.959 28.25 261.562 C27.997 260.855 27.745 260.148 27.484 259.42 C26.703 257.379 26.703 257.379 25 254 C23 253.398 23 253.398 21 253 C19.297 250.348 19.297 250.348 17.75 247.062 C17.229 245.981 16.708 244.899 16.172 243.785 C15 241 15 241 15 239 C14.34 239 13.68 239 13 239 C13.06 239.653 13.12 240.307 13.181 240.98 C14.089 251.724 14.5 262.485 14.93 273.257 C15.062 276.559 15.2 279.86 15.338 283.162 C15.425 285.297 15.511 287.432 15.598 289.566 C15.638 290.536 15.679 291.505 15.721 292.503 C15.989 299.338 16.044 306.16 16 313 C13.01 314.495 10.3 314.116 7 314 C6.01 313.67 5.02 313.34 4 313 C4.03 312.057 4.061 311.114 4.092 310.143 C4.811 287.422 5.142 264.733 5 242 C4.481 242.927 3.961 243.854 3.426 244.809 C2.722 246.019 2.018 247.228 1.312 248.438 C1.143 248.743 1.143 248.743 0.283 250.291 C-2.411 254.848 -2.411 254.848 -5.657 255.685 C-6.044 255.737 -6.044 255.737 -8 256 C-9.118 257.582 -9.118 257.582 -9.801 259.598 C-10.055 260.316 -10.31 261.035 -10.572 261.775 C-10.817 262.53 -11.061 263.285 -11.312 264.062 C-11.576 264.821 -11.84 265.58 -12.111 266.361 C-12.759 268.235 -13.382 270.117 -14 272 C-14.33 271.01 -14.66 270.02 -15 269 C-21.736 273.629 -27.329 279.139 -33 285 C-33.66 285.66 -34.32 286.32 -35 287 C-35.33 286.34 -35.66 285.68 -36 285 C-40.924 285.458 -43.287 286.803 -47 290 C-47.66 290 -48.32 290 -49 290 C-47.55 286.209 -45.848 282.613 -44 279 C-44.66 279 -45.32 279 -46 279 C-44.857 276.194 -43.737 274.75 -41.5 272.625 C-39 270 -39 270 -38.312 267.062 C-36.451 262.72 -33.412 261.602 -29.312 259.492 C-26.725 257.822 -26.296 256.699 -25 254 C-23.152 252.797 -23.152 252.797 -20.938 251.75 C-15.116 248.712 -8.148 244.445 -6 238 C-12.795 239.874 -18.151 242.708 -23.938 246.688 C-25.423 247.695 -26.911 248.699 -28.402 249.699 C-29.047 250.141 -29.691 250.583 -30.355 251.038 C-32 252 -32 252 -34 252 C-34.33 251.34 -34.66 250.68 -35 250 C-35.739 250.315 -36.477 250.629 -37.238 250.953 C-43.378 253.543 -49.538 255.981 -55.82 258.203 C-58 259 -58 259 -60 260 C-61.891 260.341 -63.788 260.649 -65.688 260.938 C-70.265 261.67 -74.586 262.596 -79 264 C-79 263.34 -79 262.68 -79 262 C-82.3 262.99 -85.6 263.98 -89 265 C-89.33 264.34 -89.66 263.68 -90 263 C-90.356 263.157 -90.356 263.157 -92.157 263.949 C-95.009 265.003 -97.479 265.465 -100.492 265.816 C-101.01 265.879 -101.01 265.879 -103.629 266.193 C-104.165 266.254 -104.165 266.254 -106.875 266.562 C-108.997 266.813 -111.12 267.065 -113.242 267.316 C-114.236 267.433 -115.229 267.549 -116.253 267.668 C-119.511 268.062 -122.755 268.515 -126 269 C-123.127 265.488 -120.196 262.154 -116.93 259.004 C-116.387 258.478 -115.845 257.953 -115.286 257.411 C-114.187 256.353 -113.08 255.304 -111.964 254.265 C-110.567 252.917 -109.275 251.463 -108 250 C-108 248.68 -108 247.36 -108 246 C-105.921 244.435 -104.005 243.191 -101.75 241.938 C-93.478 237.165 -93.478 237.165 -91 235 C-91 234.34 -91 233.68 -91 233 C-89.273 232.492 -87.543 231.994 -85.812 231.5 C-85.331 231.361 -85.331 231.361 -82.895 230.656 C-80.147 230.033 -77.804 229.877 -75 230 C-75 229.34 -75 228.68 -75 228 C-68.73 228 -62.46 228 -56 228 C-56 227.34 -56 226.68 -56 226 C-48.646 226.437 -41.365 227.028 -34.062 228 C-26.388 229.019 -18.729 229.578 -11 230 C-11 229.34 -11 228.68 -11 228 C-14.665 227.322 -18.332 226.658 -22 226 C-22.984 225.821 -23.967 225.642 -24.98 225.457 C-31.971 224.229 -38.919 223.477 -46 223 C-46 222.34 -46 221.68 -46 221 C-49.465 220.835 -49.465 220.835 -67 220 C-67 218 -67 218 -65.5 216.375 C-65.005 215.921 -64.51 215.467 -64 215 C-64.82 215.023 -65.64 215.046 -66.484 215.07 C-67.562 215.088 -68.64 215.106 -69.75 215.125 C-70.817 215.148 -71.885 215.171 -72.984 215.195 C-75.925 215.005 -77.524 214.527 -80 213 C-79.67 212.67 -79.34 212.34 -79 212 C-81.869 210.565 -84.735 210.621 -87.906 210.379 C-90 210 -90 210 -92 208 C-91.67 207.34 -91.34 206.68 -91 206 C-94.96 205.01 -98.92 204.02 -103 203 C-102.34 201.35 -101.68 199.7 -101 198 C-102.217 197.938 -103.434 197.876 -104.688 197.812 C-109.158 197.288 -111.133 195.494 -114 192 C-113.67 191.34 -113.34 190.68 -113 190 C-114.134 189.959 -115.269 189.918 -116.438 189.875 C-121.723 189.214 -126.221 186.737 -130 183 C-130.754 180.297 -130.754 180.297 -131 178 C-131.454 177.876 -131.454 177.876 -133.75 177.25 C-137.837 175.678 -139.642 173.621 -142.414 170.312 C-150.287 161.059 -159.158 153.594 -169.25 146.91 C-171.445 145.386 -173.22 143.971 -175 142 C-165.81 137.405 -152.238 142.356 -143 145 C-141.668 145.34 -140.336 145.678 -139 146 C-139 145.34 -139 144.68 -139 144 C-132.546 146.058 -126.264 148.424 -120 151 C-119.67 150.01 -119.34 149.02 -119 148 C-115.395 149.956 -111.791 151.915 -108.188 153.875 C-107.163 154.431 -106.139 154.986 -105.084 155.559 C-104.101 156.094 -103.118 156.629 -102.105 157.18 C-101.199 157.672 -100.294 158.164 -99.36 158.671 C-97.527 159.703 -95.75 160.833 -94 162 C-93.363 161.805 -92.726 161.611 -92.07 161.41 C-91.729 161.342 -91.729 161.342 -90 161 C-87.93 162.434 -87.93 162.434 -85.875 164.438 C-82.18 168 -82.18 168 -80 168 C-78.375 166.5 -78.375 166.5 -77 165 C-75.827 166.286 -74.662 167.579 -73.5 168.875 C-72.85 169.594 -72.201 170.314 -71.531 171.055 C-70 173 -70 173 -70 175 C-69.01 175 -68.02 175 -67 175 C-66.67 174.34 -66.34 173.68 -66 173 C-61.357 174.548 -60.183 178.423 -57.816 182.531 C-55.705 185.4 -55.27 185.242 -52 186 C-49.888 187.784 -47.915 189.578 -45.938 191.5 C-44.77 192.604 -43.601 193.705 -42.43 194.805 C-41.849 195.35 -41.269 195.895 -40.671 196.456 C-34.339 202.307 -27.462 207.493 -20.5 212.562 C-19.9 213.005 -19.3 213.447 -18.682 213.903 C-14.354 217 -14.354 217 -11 217 C-15.112 211.745 -19.153 206.604 -24 202 C-24.525 201.443 -25.049 200.886 -25.59 200.312 C-31.299 194.326 -37.703 189.414 -44.234 184.377 C-48.559 181.005 -52.773 177.494 -57 174 C-56.34 172.35 -55.68 170.7 -55 169 C-55.681 168.753 -56.361 168.505 -57.062 168.25 C-60.569 166.758 -63.716 164.932 -67 163 C-66.835 162.01 -66.835 162.01 -66 157 C-66.443 156.887 -66.443 156.887 -68.688 156.312 C-72.483 154.809 -74.407 153.126 -77 150 C-77 149.01 -77 148.02 -77 147 C-76.34 147 -75.68 147 -75 147 C-75 146.34 -75 145.68 -75 145 C-75.722 144.918 -76.444 144.835 -77.188 144.75 C-80.553 143.852 -82.416 142.289 -85 140 C-84.67 138.68 -84.34 137.36 -84 136 C-84.638 135.492 -85.276 134.984 -85.934 134.461 C-92.836 128.711 -92.836 128.711 -93.75 124.75 C-93.832 123.842 -93.915 122.935 -94 122 C-94.846 121.34 -95.691 120.68 -96.562 120 C-97.367 119.34 -98.171 118.68 -99 118 C-98.959 117.113 -98.918 116.226 -98.875 115.312 C-99.052 110.624 -101.464 108.503 -104.469 105.051 C-106 103 -106 103 -106 100 C-105.01 100 -104.02 100 -103 100 C-103.482 99.457 -103.964 98.915 -104.461 98.355 C-105.093 97.64 -105.724 96.925 -106.375 96.188 C-107.001 95.48 -107.628 94.772 -108.273 94.043 C-110 92 -110 92 -112 89 C-111.827 88.344 -111.655 87.688 -111.477 87.012 C-111.398 86.68 -111.398 86.68 -111 85 C-112.258 83.312 -113.52 81.626 -114.809 79.961 C-116.143 77.764 -116.329 76.481 -116.438 73.938 C-116.791 67.157 -120.178 61.067 -123 55 C-122.34 55 -121.68 55 -121 55 C-121.182 46.272 -123.081 38.757 -125.844 30.566 C-126.775 27.695 -127.497 24.969 -128 22 C-121.197 22.803 -116.956 27.643 -112 32 C-111.011 32.865 -110.023 33.73 -109.004 34.621 C-101.014 41.728 -92.669 49.32 -86.848 58.332 C-86.238 59.212 -85.628 60.093 -85 61 C-84.577 61.062 -84.577 61.062 -82.438 61.375 C-81.633 61.581 -80.829 61.788 -80 62 C-77.981 65.525 -77 68.951 -77 73 C-75.02 72.34 -73.04 71.68 -71 71 C-68.714 79.429 -68.714 79.429 -69 84 C-67.02 83.34 -65.04 82.68 -63 82 C-62.01 86.29 -61.02 90.58 -60 95 C-58.35 94.01 -56.7 93.02 -55 92 C-53.68 97.28 -52.36 102.56 -51 108 C-49.68 107.34 -48.36 106.68 -47 106 C-44.475 108.525 -44.443 110.138 -43.875 113.625 C-43.791 114.126 -43.791 114.126 -43.367 116.664 C-43.246 117.435 -43.125 118.206 -43 119 C-41.68 118.34 -40.36 117.68 -39 117 C-38.807 117.843 -38.613 118.686 -38.414 119.555 C-38.154 120.65 -37.893 121.746 -37.625 122.875 C-37.37 123.966 -37.115 125.056 -36.852 126.18 C-36 129 -36 129 -34 131 C-33.01 130.67 -32.02 130.34 -31 130 C-31 134.95 -31 139.9 -31 145 C-29.02 144.34 -27.04 143.68 -25 143 C-24.67 147.95 -24.34 152.9 -24 158 C-22.02 157.67 -20.04 157.34 -18 157 C-17.67 159.145 -17.67 159.145 -16 170 C-15.01 170 -14.02 170 -13 170 C-12.992 170.444 -12.992 170.444 -12.949 172.691 C-11.986 186.935 -5.887 200.169 2 212 C2.99 212.33 3.98 212.66 5 213 C3.411 194.258 -0.443 177.835 -11 162 C-9.35 161.67 -7.7 161.34 -6 161 C-6.242 160.406 -6.485 159.811 -6.734 159.199 C-7.837 156.472 -8.922 153.737 -10 151 C-10.393 150.007 -10.786 149.015 -11.191 147.992 C-11.376 147.509 -11.376 147.509 -12.312 145.062 C-12.659 144.167 -13.006 143.271 -13.363 142.348 C-14 140 -14 140 -13 137 C-11.68 137.33 -10.36 137.66 -9 138 C-9.3 137.036 -9.601 136.072 -9.91 135.078 C-10.1 134.446 -10.1 134.446 -11.062 131.25 C-11.445 129.997 -11.828 128.744 -12.223 127.453 C-12.927 124.326 -13.167 122.905 -12 120 C-11.34 120 -10.68 120 -10 120 C-10.361 119.229 -10.722 118.458 -11.094 117.664 C-11.558 116.661 -12.022 115.658 -12.5 114.625 C-12.964 113.627 -13.428 112.63 -13.906 111.602 C-15 109 -15 109 -15 107 C-14.01 107 -13.02 107 -12 107 C-12.373 106.241 -12.745 105.481 -13.129 104.699 C-13.602 103.705 -14.075 102.711 -14.562 101.688 C-15.038 100.701 -15.514 99.715 -16.004 98.699 C-17 96 -17 96 -16 93 C-15.01 93.33 -14.02 93.66 -13 94 C-13.144 93.662 -13.144 93.662 -13.875 91.953 C-14.246 91.061 -14.618 90.169 -15 89.25 C-15.186 88.809 -15.186 88.809 -16.125 86.578 C-17 84 -17 84 -17 80 C-16.01 80.165 -16.01 80.165 -11 81 C-11.144 80.596 -11.144 80.596 -11.875 78.551 C-12.246 77.482 -12.618 76.414 -13 75.312 C-13.371 74.257 -13.743 73.201 -14.125 72.113 C-14.939 69.216 -15.177 66.983 -15 64 C-14.01 64.165 -14.01 64.165 -9 65 C-9.474 64.175 -9.949 63.35 -10.438 62.5 C-12.236 58.472 -12.623 55.368 -13 51 C-11.68 51 -10.36 51 -9 51 C-9.309 50.319 -9.619 49.639 -9.938 48.938 C-11.134 45.63 -11.59 42.485 -12 39 C-11.34 38.67 -11.34 38.67 -8 37 C-8.33 35.02 -8.33 35.02 -10 25 C-8.02 25 -6.04 25 -4 25 C-4.165 24.031 -4.33 23.061 -4.5 22.062 C-5.134 17.705 -5.09 13.394 -5 9 C-4.34 9.165 -4.34 9.165 -1 10 C-1.01 9.453 -1.01 9.453 -1.062 6.688 C-1 3 -1 3 0 0 Z " fill="#000000" transform="translate(296,396)"/>
<path d="M0 0 C2.945 2.565 5.941 5.054 8.977 7.512 C13.823 11.446 18.558 15.496 23.285 19.57 C26.81 22.601 30.367 25.582 33.977 28.512 C39.377 32.899 44.651 37.424 49.926 41.961 C57.165 48.187 64.435 54.373 71.852 60.387 C76.974 64.553 81.951 68.874 86.927 73.212 C91.439 77.137 96.03 80.946 100.676 84.711 C105.154 88.389 109.533 92.182 113.926 95.961 C121.187 102.206 128.482 108.408 135.914 114.449 C140.113 117.868 144.245 121.357 148.352 124.887 C148.937 125.389 149.522 125.89 150.125 126.407 C153.12 128.979 156.106 131.559 159.082 134.152 C160.234 135.147 161.387 136.142 162.539 137.137 C163.063 137.598 163.587 138.059 164.126 138.535 C167.088 141.079 169.759 142.797 173.477 144.012 C173.984 143.374 174.492 142.736 175.016 142.078 C180.611 135.361 180.611 135.361 184.727 133.699 C187.477 134.012 187.477 134.012 189.852 135.574 C191.976 138.76 191.981 140.221 191.477 144.012 C189.777 146.434 188.164 148.433 186.164 150.574 C185.057 151.811 183.95 153.048 182.844 154.285 C182.28 154.906 181.716 155.527 181.136 156.167 C178.625 158.959 176.205 161.825 173.789 164.699 C173.333 165.238 172.878 165.776 172.408 166.331 C169.601 169.653 166.841 173.009 164.102 176.387 C159.935 181.509 155.615 186.486 151.276 191.462 C147.354 195.971 143.546 200.559 139.785 205.203 C137.063 208.515 134.275 211.765 131.477 215.012 C127.885 219.181 124.33 223.372 120.852 227.637 C120.14 228.503 119.428 229.369 118.695 230.262 C117.08 232.264 115.504 234.279 113.945 236.324 C113.081 237.428 112.216 238.533 111.352 239.637 C110.586 240.64 109.82 241.642 109.031 242.676 C105.831 245.602 103.761 245.932 99.477 246.012 C97.039 244.387 97.039 244.387 95.477 242.012 C94.961 238.577 95.302 237.278 97.227 234.336 C97.598 233.901 97.598 233.901 99.477 231.699 C100.219 230.816 100.962 229.933 101.727 229.023 C102.304 228.36 102.882 227.696 103.477 227.012 C95.87 219.323 87.828 212.213 79.418 205.418 C76.103 202.706 72.848 199.931 69.602 197.137 C61.149 189.867 52.691 182.607 44.039 175.574 C38.621 171.163 33.324 166.618 28.027 162.062 C20.766 155.817 13.471 149.615 6.039 143.574 C0.618 139.16 -4.682 134.614 -9.98 130.055 C-14.929 125.798 -19.918 121.59 -24.906 117.379 C-26.553 115.987 -28.197 114.592 -29.84 113.195 C-34.824 108.963 -39.819 104.754 -44.898 100.637 C-49.352 97.014 -53.697 93.283 -58.023 89.512 C-64.891 83.526 -71.8 77.578 -79.074 72.086 C-89.248 63.47 -93.77 51.483 -95.336 38.602 C-96.248 21.14 -88.237 8.924 -77.223 -3.605 C-52.997 -29.165 -23.591 -20.564 0 0 Z M-58.523 4.012 C-57.217 6.96 -55.922 8.801 -53.441 10.852 C-52.839 11.358 -52.236 11.863 -51.615 12.385 C-50.987 12.901 -50.358 13.417 -49.711 13.949 C-45.457 17.483 -41.37 21.034 -37.523 25.012 C-38.153 25.69 -38.782 26.368 -39.43 27.066 C-43.785 31.802 -48.091 36.568 -52.211 41.512 C-52.875 42.306 -53.539 43.1 -54.223 43.918 C-54.652 44.609 -55.081 45.3 -55.523 46.012 C-55.193 47.002 -54.863 47.992 -54.523 49.012 C-52.461 49.699 -52.461 49.699 -50.523 50.012 C-44.224 43.222 -38.208 36.332 -32.523 29.012 C-26.72 33.19 -21.306 37.716 -15.901 42.389 C-10.524 47.033 -5.05 51.545 0.477 56.012 C-0.906 60.146 -2.8 62.721 -5.773 65.887 C-6.172 66.319 -6.172 66.319 -8.191 68.508 C-8.961 69.334 -9.731 70.16 -10.523 71.012 C-16.523 77.547 -16.523 77.547 -16.523 81.012 C-14.873 81.672 -13.223 82.332 -11.523 83.012 C-5.649 76.155 0.171 69.325 5.477 62.012 C8.874 63.53 11.493 65.515 14.352 67.887 C14.831 68.284 14.831 68.284 17.258 70.297 C21.405 73.782 25.518 77.308 29.617 80.849 C32.851 83.64 36.121 86.366 39.477 89.012 C38.186 91.798 36.783 94.017 34.762 96.324 C34.24 96.925 33.719 97.526 33.182 98.145 C32.64 98.761 32.098 99.377 31.539 100.012 C24.985 107.515 24.985 107.515 22.477 111.012 C23.137 112.332 23.797 113.652 24.477 115.012 C27.477 115.012 27.477 115.012 29.457 113.176 C29.821 112.757 29.821 112.757 31.664 110.637 C32.45 109.734 33.237 108.832 34.047 107.902 C37.605 103.669 41.073 99.37 44.477 95.012 C53.773 99.26 61.487 107.538 69.18 114.18 C72.249 116.827 75.356 119.425 78.477 122.012 C75.022 127.481 70.953 132.174 66.635 136.977 C66.115 137.568 65.594 138.16 65.059 138.77 C64.587 139.297 64.115 139.824 63.628 140.368 C62.292 142.275 61.734 143.697 61.477 146.012 C62.137 146.672 62.797 147.332 63.477 148.012 C64.467 148.012 65.457 148.012 66.477 148.012 C68.492 145.887 68.492 145.887 70.727 143.012 C74.107 138.724 77.572 134.595 81.262 130.57 C82.477 129.012 82.477 129.012 82.477 127.012 C86.664 128.933 89.825 130.973 93.164 134.137 C97.587 138.234 102.162 142.067 106.848 145.859 C110.468 148.823 113.984 151.899 117.477 155.012 C113.516 160.572 109.19 165.632 104.527 170.617 C102.518 172.964 100.982 175.32 99.477 178.012 C100.467 179.002 101.457 179.992 102.477 181.012 C105.425 179.706 107.266 178.41 109.316 175.93 C109.569 175.628 109.569 175.628 110.85 174.104 C111.108 173.789 111.108 173.789 112.414 172.199 C115.948 167.945 119.498 163.858 123.477 160.012 C124.155 160.569 124.833 161.125 125.531 161.699 C131.811 166.848 138.123 171.954 144.477 177.012 C147.406 175.71 149.263 174.42 151.316 171.965 C151.822 171.367 152.328 170.769 152.85 170.152 C153.366 169.528 153.882 168.905 154.414 168.262 C154.926 167.653 155.439 167.045 155.967 166.418 C156.984 165.209 157.995 163.995 159 162.775 C159.979 161.606 160.98 160.456 162.004 159.326 C163.418 157.746 163.418 157.746 165.477 155.012 C164.243 151.312 162.838 150.465 159.789 148.074 C155.272 144.471 150.848 140.791 146.477 137.012 C142.375 133.475 138.249 129.983 134.039 126.574 C128.934 122.432 123.98 118.131 119.026 113.811 C114.514 109.887 109.923 106.077 105.277 102.312 C100.799 98.634 96.421 94.841 92.027 91.062 C84.766 84.817 77.471 78.615 70.039 72.574 C64.618 68.16 59.318 63.614 54.02 59.055 C49.071 54.798 44.082 50.59 39.094 46.379 C37.447 44.987 35.803 43.592 34.16 42.195 C29.074 37.877 23.974 33.587 18.789 29.387 C15.238 26.499 11.797 23.532 8.414 20.449 C4.486 16.872 0.431 13.538 -3.746 10.258 C-5.877 8.534 -7.955 6.785 -10.02 4.984 C-10.325 4.718 -10.325 4.718 -11.87 3.372 C-13.064 2.328 -14.254 1.278 -15.438 0.223 C-22.07 -5.572 -27.414 -8.725 -36.469 -8.363 C-45.893 -7.206 -51.927 -2.552 -58.523 4.012 Z " fill="#000000" transform="translate(611.5234375,304.98828125)"/>
<path d="M0 0 C4.63 3.233 5.138 7.37 6.116 12.67 C9.955 35.629 4.701 59.564 -8.844 78.59 C-24.847 99.197 -45.672 111.117 -71.516 114.703 C-87.78 116.089 -103.304 112.945 -118 106 C-118.95 105.571 -119.9 105.141 -120.879 104.699 C-126.643 101.855 -131.486 98.187 -136.375 94.062 C-136.958 93.572 -137.542 93.082 -138.143 92.578 C-142.132 89.09 -145.178 85.497 -148 81 C-148 77.852 -147.825 76.049 -145.865 73.557 C-143.212 71.342 -140.227 69.883 -137.156 68.34 C-136.48 67.994 -135.803 67.648 -135.106 67.291 C-132.906 66.168 -130.703 65.053 -128.5 63.938 C-126.223 62.776 -123.946 61.613 -121.67 60.449 C-120.169 59.683 -118.669 58.917 -117.168 58.152 C-111.715 55.372 -106.284 52.552 -100.875 49.688 C-99.419 48.918 -97.964 48.148 -96.508 47.379 C-95.786 46.998 -95.065 46.616 -94.321 46.223 C-89.805 43.843 -85.277 41.485 -80.75 39.125 C-79.788 38.623 -78.826 38.122 -77.834 37.605 C-73.904 35.556 -69.974 33.507 -66.043 31.459 C-47.07 21.57 -47.07 21.57 -38.701 17.162 C-37.165 16.353 -35.628 15.546 -34.09 14.74 C-29.829 12.505 -25.589 10.236 -21.363 7.934 C-20.417 7.424 -19.471 6.914 -18.497 6.389 C-16.668 5.403 -14.844 4.408 -13.027 3.402 C-4.798 -1.006 -4.798 -1.006 0 0 Z " fill="#000000" transform="translate(565,749)"/>
<path d="M0 0 C1.401 1.139 2.798 2.284 4.188 3.438 C4.753 3.881 5.319 4.324 5.902 4.781 C10.632 8.536 14.79 11.874 15.75 18.062 C15.067 22.163 14.349 22.816 11.188 25.438 C8.4 27.11 5.512 28.554 2.602 30 C1.756 30.428 0.911 30.856 0.04 31.298 C-1.766 32.212 -3.573 33.122 -5.381 34.029 C-10.071 36.383 -14.748 38.76 -19.426 41.137 C-20.34 41.6 -21.253 42.064 -22.195 42.542 C-28.988 45.996 -35.709 49.556 -42.375 53.25 C-48.549 56.666 -54.745 59.97 -61.075 63.086 C-77.416 71.149 -93.557 79.649 -109.688 88.125 C-110.398 88.498 -111.109 88.871 -111.841 89.255 C-112.175 89.432 -112.175 89.432 -113.867 90.324 C-114.506 90.661 -115.145 90.998 -115.803 91.345 C-117.274 92.145 -118.73 92.971 -120.177 93.813 C-120.97 94.272 -121.762 94.73 -122.578 95.203 C-123.295 95.628 -124.012 96.052 -124.751 96.489 C-128.087 98.024 -130.417 97.592 -133.812 96.438 C-141.193 88.259 -140.101 72.928 -139.637 62.484 C-137.33 39.094 -126.639 17.933 -108.812 2.438 C-77.18 -22.694 -32.722 -25.183 0 0 Z " fill="#000000" transform="translate(537.8125,707.5625)"/>
<path d="M0 0 C2.764 2.764 2.964 5.785 3.625 9.5 C3.69 9.864 3.69 9.864 4.018 11.707 C7.113 29.974 2.609 47.865 -7.215 63.492 C-18.729 79.667 -35.3 90.157 -54.841 93.687 C-71.45 96.098 -87.169 92.667 -102 85 C-101.092 80.762 -99.008 77.437 -96.812 73.75 C-91.918 65.313 -87.94 56.38 -85.452 46.917 C-84.273 42.907 -83.155 40.686 -79.5 38.523 C-78.012 37.782 -76.511 37.067 -75 36.375 C-73.269 35.523 -71.539 34.67 -69.809 33.816 C-69.341 33.591 -69.341 33.591 -66.972 32.45 C-61.617 29.838 -56.346 27.064 -51.062 24.312 C-49.939 23.731 -48.816 23.15 -47.658 22.551 C-37.7 17.394 -27.81 12.114 -17.936 6.798 C-16.824 6.2 -15.712 5.601 -14.566 4.984 C-13.586 4.456 -12.606 3.927 -11.596 3.382 C-11.168 3.154 -11.168 3.154 -9 2 C-8.279 1.614 -7.559 1.227 -6.816 0.829 C-4.413 -0.268 -2.609 -0.275 0 0 Z " fill="#000000" transform="translate(675,758)"/>
<path d="M0 0 C3.145 0.589 4.911 1.496 7.285 3.625 C7.589 3.894 7.589 3.894 9.126 5.253 C9.765 5.83 10.404 6.406 11.062 7 C12.41 8.193 13.759 9.384 15.109 10.574 C15.44 10.867 15.44 10.867 17.115 12.349 C24.515 18.831 32.306 24.875 40 31 C43.864 29.477 45.719 27.174 48.25 23.938 C49.036 22.958 49.823 21.978 50.633 20.969 C52.128 19.094 53.623 17.219 55.117 15.344 C58.112 11.755 60.326 9.331 64.562 7.25 C69.053 6.923 71.092 7.811 75 10 C76.773 13.546 76.62 17.136 76 21 C74.493 24.085 72.276 26.449 70 29 C69.08 30.074 68.162 31.149 67.246 32.227 C65.178 34.656 63.098 37.075 61.012 39.488 C58.457 42.453 55.965 45.461 53.5 48.5 C49.566 53.347 45.514 58.083 41.439 62.811 C38.428 66.312 35.469 69.848 32.562 73.438 C28.427 78.534 24.137 83.485 19.817 88.424 C15.697 93.149 11.755 97.979 7.902 102.926 C4.967 106.126 2.844 106.893 -1.438 107.438 C-5 107 -5 107 -7.938 105 C-10.077 101.888 -10.559 99.925 -10.566 96.16 C-8.831 89.543 -2.773 84.146 1.666 79.123 C4.481 75.898 6.935 72.78 9 69 C3.174 63.654 -2.764 58.516 -8.914 53.547 C-13.387 49.894 -17.713 46.066 -22.05 42.253 C-22.664 41.716 -23.278 41.178 -23.91 40.625 C-24.458 40.143 -25.006 39.661 -25.571 39.164 C-27 38 -27 38 -29 37 C-28.471 32.861 -26.254 30.825 -23.438 27.875 C-19.44 23.615 -15.703 19.23 -12.094 14.637 C-9.61 11.509 -7.062 8.439 -4.5 5.375 C-4.054 4.841 -3.608 4.308 -3.148 3.758 C-2.1 2.505 -1.05 1.252 0 0 Z " fill="#000000" transform="translate(779,486)"/>
<path d="M0 0 C18.755 -0.832 36.932 8.68 50.387 20.973 C56.519 27.159 56.519 27.159 56.863 31.031 C56.781 31.753 56.698 32.475 56.613 33.219 C47.604 38.307 38.589 43.324 29.302 47.89 C21.231 51.871 13.261 56.05 5.28 60.208 C-1.247 63.604 -7.792 66.955 -14.387 70.219 C-14.451 69.515 -14.516 68.811 -14.583 68.086 C-16.452 48.421 -19.08 29.512 -30.129 12.543 C-30.336 12.159 -30.336 12.159 -31.387 10.219 C-31.057 9.229 -30.727 8.239 -30.387 7.219 C-20.798 2.488 -10.546 0.967 0 0 Z " fill="#000000" transform="translate(608.38671875,709.78125)"/>
<path d="M0 0 C2.788 1.289 4.99 2.686 7.285 4.723 C7.589 4.99 7.589 4.99 9.125 6.34 C9.765 6.908 10.404 7.477 11.062 8.062 C12.416 9.251 13.77 10.439 15.125 11.625 C15.456 11.915 15.456 11.915 17.133 13.383 C19.569 15.493 22.057 17.534 24.562 19.562 C29.392 23.473 34.105 27.505 38.811 31.561 C42.313 34.573 45.848 37.531 49.438 40.438 C54.543 44.581 59.498 48.882 64.453 53.203 C68.087 56.365 71.755 59.469 75.5 62.5 C79.917 66.075 84.218 69.766 88.5 73.5 C94.571 78.792 100.722 83.955 107 89 C107.879 89.743 108.758 90.485 109.664 91.25 C112 93 112 93 114.25 92.938 C115.855 92.39 117.454 91.825 119.035 91.215 C124.247 89.293 128.637 87.937 134 90 C136.49 91.665 138.753 93.449 141.02 95.406 C143 97 143 97 146 98 C146.33 97.34 146.66 96.68 147 96 C148.812 95.188 148.812 95.188 151 95 C153.25 96.438 153.25 96.438 155 98 C154.547 102.907 153.428 105.183 150 108.688 C146.754 112.117 143.65 115.572 140.688 119.25 C137.028 123.771 133.288 128.212 129.5 132.625 C128.971 133.241 128.442 133.858 127.897 134.493 C123.172 139.987 123.172 139.987 120.562 140.188 C118 140 118 140 116 138 C115.875 135.625 115.875 135.625 116 133 C116 129 116 129 114.32 127 C113.596 126.34 112.871 125.68 112.125 125 C108.53 121.701 106.245 119.384 105.734 114.414 C105.74 113.494 105.745 112.573 105.75 111.625 C105.747 111.167 105.747 111.167 105.734 108.852 C106.031 105.667 106.889 102.99 108 100 C102.137 94.621 96.159 89.449 89.977 84.441 C86.043 81.215 82.189 77.901 78.333 74.583 C74.405 71.202 70.461 67.842 66.5 64.5 C61.937 60.65 57.401 56.77 52.875 52.875 C47.926 48.619 42.912 44.458 37.844 40.344 C33.913 37.104 30.06 33.776 26.202 30.45 C22.574 27.328 18.905 24.266 15.188 21.25 C14.317 20.533 13.447 19.817 12.551 19.078 C10.841 17.686 9.109 16.321 7.355 14.984 C3.163 11.631 0.565 9.504 -0.062 4 C-0.083 2.667 -0.077 1.331 0 0 Z " fill="#000000" transform="translate(388,182)"/>
<path d="M0 0 C2.214 2.214 2.634 3.574 3.625 6.5 C5.614 11.678 8.506 15.342 12.027 19.574 C17.439 26.228 19.828 31.486 19.418 40.199 C18.589 45.755 16.11 48.757 12.375 52.938 C8.473 55.322 6.049 55.849 1.535 55.617 C-4.203 54.22 -7.603 49.877 -11 45.312 C-13.669 36.471 -12.4 29.862 -8.188 21.875 C-7.452 20.512 -6.715 19.15 -5.977 17.789 C-3.598 13.373 -2.143 8.874 -1 4 C-0.833 3.333 -0.833 3.333 0 0 Z " fill="#000000" transform="translate(388,209)"/>
<path d="M0 0 C1.333 0.333 2.667 0.667 4 1 C4.33 0.67 4.66 0.34 5 0 C6.666 -0.041 8.334 -0.043 10 0 C10 2.64 10 5.28 10 8 C9.67 7.01 9.34 6.02 9 5 C6.36 5 3.72 5 1 5 C0.34 3.68 -0.32 2.36 -1 1 C-0.67 0.67 -0.34 0.34 0 0 Z " fill="#DC0000" transform="translate(689,670)"/>
<path d="M0 0 C2.31 0 4.62 0 7 0 C7 1.98 7 3.96 7 6 C6.34 6 5.68 6 5 6 C4.67 5.34 4.34 4.68 4 4 C1.938 2.875 1.938 2.875 0 2 C0 1.34 0 0.68 0 0 Z " fill="#DC0000" transform="translate(739,692)"/>
<path d="M0 0 C1.32 0.66 2.64 1.32 4 2 C3.34 2.66 2.68 3.32 2 4 C1.01 3.01 0.02 2.02 -1 1 C-0.67 0.67 -0.34 0.34 0 0 Z " fill="#DC0000" transform="translate(716,661)"/>
<path d="M0 0 C0.66 0 1.32 0 2 0 C2 0.99 2 1.98 2 3 C1.01 3 0.02 3 -1 3 C-0.67 2.01 -0.34 1.02 0 0 Z " fill="#DC0000" transform="translate(720,700)"/>
<path d="M0 0 C0.99 0.99 1.98 1.98 3 3 C2.01 3 1.02 3 0 3 C0 2.01 0 1.02 0 0 Z " fill="#DC0000" transform="translate(684,680)"/>
<path d="M0 0 C0.99 0.33 1.98 0.66 3 1 C2.34 1.66 1.68 2.32 1 3 C0.67 2.01 0.34 1.02 0 0 Z " fill="#DC0000" transform="translate(633,655)"/>
<path d="M0 0 C0.66 0.33 0.66 0.33 4 2 C2.68 1.67 1.36 1.34 0 1 C0 0.67 0 0.34 0 0 Z " fill="#DC0000" transform="translate(727,701)"/>
<path d="M0 0 C0.99 0.33 1.98 0.66 3 1 C2.01 1.33 1.02 1.66 0 2 C0 1.34 0 0.68 0 0 Z " fill="#DC0000" transform="translate(686,710)"/>
<path d="M0 0 C0.33 0.99 0.66 1.98 1 3 C0.34 2.67 -0.32 2.34 -1 2 C-0.67 1.34 -0.34 0.68 0 0 Z " fill="#DC0000" transform="translate(759,705)"/>
<path d="M0 0 C0.33 0.99 0.66 1.98 1 3 C0.34 2.67 -0.32 2.34 -1 2 C-0.67 1.34 -0.34 0.68 0 0 Z " fill="#DC0000" transform="translate(713,701)"/>
<path d="M0 0 C0.33 0.495 0.33 0.495 2 3 C1.34 3 0.68 3 0 3 C0 2.01 0 1.02 0 0 Z " fill="#DC0000" transform="translate(678,688)"/>
<path d="M0 0 C0.33 0.165 0.33 0.165 2 1 C1.67 1.165 1.67 1.165 0 2 C0 1.34 0 0.68 0 0 Z " fill="#DC0000" transform="translate(751,701)"/>
<path d="M0 0 C0.33 0.66 0.66 1.32 1 2 C0.34 1.67 -0.32 1.34 -1 1 C-0.67 0.67 -0.34 0.34 0 0 Z " fill="#DC0000" transform="translate(636,670)"/>
<path d="M0 0 C2 1 2 1 2 1 Z " fill="#DC0000" transform="translate(785,710)"/>
<path d="M0 0 C2 1 2 1 2 1 Z " fill="#DC0000" transform="translate(684,709)"/>
<path d="" fill="#DC0000" transform="translate(0,0)"/>
<path d="M0 0 C2 1 2 1 2 1 Z " fill="#DC0000" transform="translate(665,689)"/>
<path d="M0 0 C2 1 2 1 2 1 Z " fill="#DC0000" transform="translate(667,688)"/>
<path d="" fill="#DC0000" transform="translate(0,0)"/>
<path d="M0 0 C2 1 2 1 2 1 Z " fill="#DC0000" transform="translate(665,681)"/>
<path d="" fill="#DC0000" transform="translate(0,0)"/>
<path d="M0 0 C2 1 2 1 2 1 Z " fill="#DC0000" transform="translate(660,673)"/>
<path d="" fill="#DC0000" transform="translate(0,0)"/>
<path d="" fill="#DC0000" transform="translate(0,0)"/>
<path d="" fill="#DC0000" transform="translate(0,0)"/>
<path d="" fill="#DC0000" transform="translate(0,0)"/>
<path d="" fill="#DC0000" transform="translate(0,0)"/>
<path d="" fill="#DC0000" transform="translate(0,0)"/>
<path d="" fill="#DC0000" transform="translate(0,0)"/>
<path d="" fill="#DC0000" transform="translate(0,0)"/>
<path d="" fill="#DC0000" transform="translate(0,0)"/>
<path d="" fill="#DC0000" transform="translate(0,0)"/>
<path d="" fill="#000000" transform="translate(0,0)"/>
<path d="" fill="#DC0000" transform="translate(0,0)"/>
<path d="" fill="#DC0000" transform="translate(0,0)"/>
<path d="" fill="#DC0000" transform="translate(0,0)"/>
<path d="" fill="#DC0000" transform="translate(0,0)"/>
<path d="" fill="#DC0000" transform="translate(0,0)"/>
<path d="" fill="#DC0000" transform="translate(0,0)"/>
<path d="" fill="#000000" transform="translate(0,0)"/>
<path d="" fill="#DC0000" transform="translate(0,0)"/>
<path d="" fill="#DC0000" transform="translate(0,0)"/>
<path d="" fill="#DC0000" transform="translate(0,0)"/>
<path d="" fill="#DC0000" transform="translate(0,0)"/>
<path d="" fill="#DC0000" transform="translate(0,0)"/>
<path d="" fill="#DC0000" transform="translate(0,0)"/>
<path d="" fill="#DC0000" transform="translate(0,0)"/>
<path d="" fill="#DC0000" transform="translate(0,0)"/>
<path d="" fill="#DC0000" transform="translate(0,0)"/>
<path d="" fill="#DC0000" transform="translate(0,0)"/>
<path d="" fill="#DC0000" transform="translate(0,0)"/>
<path d="" fill="#DC0000" transform="translate(0,0)"/>
<path d="" fill="#DC0000" transform="translate(0,0)"/>
<path d="" fill="#DC0000" transform="translate(0,0)"/>
<path d="" fill="#DC0000" transform="translate(0,0)"/>
<path d="" fill="#DC0000" transform="translate(0,0)"/>
<path d="" fill="#000000" transform="translate(0,0)"/>
</svg>
